<svg width="500" height="500" viewBox="0 0 500 500" fill="none" xmlns="http://www.w3.org/2000/svg">
<path d="M500 0.0114746H0V500H500V0.0114746Z" fill="#444DF2"/>
<path d="M294.15 415.702C290.68 443.551 287.35 471.851 286.24 500H52.8701C55.9401 495.29 59.5801 490.31 63.6601 484.88C83.6901 458.271 99.9201 428.812 111.79 397.692C117.72 382.143 122.57 366.163 126.24 349.923C128.8 338.654 137.34 314.184 133.51 303.074C135.7 309.434 138.79 315.314 142.58 320.744C154.57 337.914 173.58 350.423 193.34 358.323C219.35 368.713 247.41 372.723 274.33 380.453C279.96 382.073 285.82 384.033 289.75 388.382C296.13 395.462 295.33 406.242 294.15 415.702Z" fill="#444DF2"/>
<path d="M294.15 415.702C290.68 443.551 287.35 471.851 286.24 500H52.8701C55.9401 495.29 59.5801 490.31 63.6601 484.88C83.6901 458.271 99.9201 428.812 111.79 397.692C117.72 382.143 122.57 366.163 126.24 349.923C128.8 338.654 137.34 314.184 133.51 303.074C135.7 309.434 138.79 315.314 142.58 320.744C154.57 337.914 173.58 350.423 193.34 358.323C219.35 368.713 247.41 372.723 274.33 380.453C279.96 382.073 285.82 384.033 289.75 388.382C296.13 395.462 295.33 406.242 294.15 415.702Z" fill="#EAAA7F"/>
<path d="M105.87 182.037C105.55 160.158 107.87 137.998 117.98 118.349C135.32 84.6197 173.36 63.7101 212.01 56.3903C250.67 49.0705 290.42 53.3504 329.35 57.9503C352.74 60.7202 387.62 64.9401 400.17 86.3696C416.76 114.669 418.37 155.518 421.67 187.187C424.97 218.857 429 250.446 432.16 282.135C434.93 309.924 433.86 339.424 422.62 365.843C409.19 397.422 379.79 423.102 344.93 431.592C295.34 443.661 227.62 427.952 195.71 390.323C172.28 362.693 146.02 332.574 130.51 300.155C114.56 266.815 108.07 229.896 106.25 193.357C106.06 189.597 105.92 185.817 105.87 182.037Z" fill="#F7C9A4"/>
<path d="M141.51 317.274C134.4 318.074 127.42 317.394 121.03 314.074C113.21 310.014 107.76 302.625 102.75 295.385C74.6798 254.876 53.2298 206.147 48.8098 156.608C47.1198 137.618 51.5498 117.189 64.8898 103.559C68.2898 100.089 72.2298 97.0793 74.9298 93.0394C78.4898 87.7195 79.5498 81.1696 81.8298 75.1798C89.3398 55.4102 109.24 41.4506 128.42 32.5608C216.67 -8.33831 325.46 -14.4782 408.64 35.9507C415.7 40.2306 422.68 47.0204 427.56 53.6703C448.06 81.6196 428.07 120.609 402.52 135.968C366.17 157.828 328.33 166.868 285.9 161.968C250.28 157.848 216.1 145.948 182.25 134.118C195.48 166.468 194.98 202.997 182.76 235.536C177.09 250.646 178.49 258.886 178.34 274.635C178.25 283.805 178.61 305.395 167.82 309.674C159.45 312.994 150.38 316.284 141.51 317.274Z" fill="#1B1464"/>
<path d="M151.38 220.686C178.18 239.276 186.44 285.655 187.12 316.034C187.15 317.454 187.17 318.934 187.8 320.214C189.83 324.404 161.22 325.864 158.9 325.884C147.61 325.994 136.31 324.804 125.29 322.324C113.33 319.634 109.69 316.484 102.58 306.194C96.6101 297.555 91.9401 287.975 89.4201 277.765C85.3301 261.195 87.2601 242.796 96.5901 228.516C99.6801 223.786 103.59 219.506 108.41 216.566C121.41 208.657 138.87 212.006 151.38 220.686Z" fill="#F7C9A4"/>
<path d="M172.08 318.044C149.13 333.654 120.53 324.434 112.42 317.564C100.61 307.554 93.0699 292.625 89.4099 277.775C85.3199 261.205 87.2499 242.806 96.5799 228.526C99.6699 223.796 103.58 219.516 108.4 216.576C121.4 208.657 138.86 212.017 151.38 220.686C165.05 230.166 174.41 245.616 176.49 262.125" fill="#F7C9A4"/>
<path d="M317.277 261.908C324.634 261.425 329.94 250.999 329.128 238.622C328.315 226.244 321.692 216.601 314.335 217.084C306.977 217.567 301.671 227.992 302.484 240.37C303.296 252.748 309.919 262.391 317.277 261.908Z" fill="#1B1464"/>
<path d="M395.401 237.927C402.758 237.444 408.064 227.018 407.252 214.64C406.439 202.262 399.816 192.619 392.459 193.102C385.101 193.585 379.795 204.011 380.608 216.389C381.42 228.767 388.043 238.41 395.401 237.927Z" fill="#1B1464"/>
<path d="M365.22 325.994C354.04 325.994 342.86 322.684 335.49 319.934C332.88 318.954 331.55 316.054 332.53 313.434C333.51 310.824 336.42 309.494 339.03 310.474C347.51 313.644 368.59 320.124 381.08 311.864C382.08 311.204 382.39 310.844 382.48 310.714C382.51 310.234 382.13 308.964 381.96 308.405C378.78 297.835 374.76 287.325 370.88 277.165C364.9 261.516 358.72 245.326 355.23 228.186C354.67 225.456 356.44 222.786 359.17 222.227C361.9 221.667 364.57 223.436 365.13 226.166C368.46 242.496 374.49 258.286 380.32 273.565C384.27 283.895 388.35 294.585 391.64 305.495C392.22 307.405 393.18 310.594 392.07 313.914C391 317.124 388.47 319.084 386.66 320.284C380.29 324.484 372.76 325.994 365.22 325.994Z" fill="#1B1464"/>
<path d="M263.79 237.696C261.35 237.696 259.2 235.916 258.81 233.426C255.42 211.797 268.82 188.817 289.32 181.127C291.93 180.147 294.84 181.467 295.82 184.077C296.8 186.687 295.48 189.597 292.87 190.577C276.69 196.647 266.11 214.787 268.79 231.856C269.22 234.606 267.34 237.196 264.58 237.626C264.31 237.676 264.05 237.696 263.79 237.696Z" fill="#1B1464"/>
<path d="M409.63 177.548C407.59 177.548 405.67 176.298 404.91 174.278C403.78 171.268 401.16 168.758 397.74 167.388C394.32 166.018 390.69 166.028 387.79 167.408C385.28 168.618 382.26 167.548 381.06 165.038C379.85 162.528 380.92 159.508 383.43 158.298C388.87 155.688 395.46 155.588 401.5 158.008C407.54 160.428 412.23 165.058 414.36 170.708C415.34 173.318 414.03 176.228 411.42 177.218C410.83 177.438 410.22 177.548 409.63 177.548Z" fill="#1B1464"/>
<path d="M344.71 378.183C331.94 378.183 319.16 374.573 308.65 367.403C306.35 365.833 305.75 362.693 307.33 360.383C308.9 358.083 312.04 357.483 314.35 359.053C331.35 370.653 355.45 371.183 372.95 360.323C375.32 358.853 378.43 359.583 379.9 361.953C381.37 364.323 380.64 367.433 378.27 368.903C368.29 375.103 356.5 378.183 344.71 378.183Z" fill="#1B1464"/>
<path d="M287.75 442.951C287.44 442.951 287.13 442.921 286.81 442.861C248.16 435.591 209.38 411.982 177.63 376.383C175.77 374.303 175.96 371.113 178.04 369.253C180.12 367.393 183.31 367.583 185.17 369.663C215.45 403.602 252.21 426.082 288.68 432.931C291.42 433.451 293.22 436.081 292.71 438.821C292.25 441.261 290.13 442.951 287.75 442.951Z" fill="#1B1464"/>
<path d="M123.88 291.425C121.29 291.425 119.08 289.445 118.86 286.815C118.12 278.255 121.46 273.115 124.4 270.305C129.75 265.195 137.56 263.855 143.23 263.645C142.38 261.716 141.14 260.106 139.49 258.796C131.89 252.726 118.34 254.626 118.21 254.646C115.46 255.046 112.89 253.146 112.48 250.396C112.07 247.646 113.96 245.076 116.71 244.656C117.44 244.546 134.68 242.056 145.76 250.866C151.07 255.086 154.06 261.036 154.63 268.535C154.75 270.055 154.17 271.545 153.07 272.595C151.96 273.645 150.44 274.125 148.93 273.935C145.57 273.505 135.85 273.315 131.37 277.615C129.4 279.505 128.6 282.225 128.93 285.935C129.17 288.715 127.12 291.165 124.34 291.405C124.18 291.415 124.03 291.425 123.88 291.425Z" fill="#EAAA7F"/>
</svg>
