<svg width="500" height="500" viewBox="0 0 500 500" fill="none" xmlns="http://www.w3.org/2000/svg">
<path d="M500 0H0V500H500V0Z" fill="#797EF3"/>
<path d="M385 228.4C381.9 220.6 381.6 211.9 381.3 203.5C381 193.3 382.6 182.5 387.8 174.4C391.8 168.1 398.1 163.4 407.2 162C413.2 161.1 422.2 161.5 426.3 166.4C430.7 171.6 432.8 181.1 433.1 187.7C433.5 196.5 431 205 428.6 213.3C425.9 222.4 423.4 241.6 412.1 243.9C400.2 246.5 389.2 239.2 385 228.4Z" fill="#D9A48E"/>
<path d="M344.3 500H121.8C122.6 496.6 123.4 493.2 124.2 489.8C140.1 421.6 146.3 355.5 147.2 284C203.5 304.8 262.7 295.9 320.8 295C342.4 294.7 335.2 319.2 335.4 342.1C335.7 370.7 336.8 399.2 338.5 427.6C340 451.8 341.9 476 344.3 500Z" fill="#D9A48E"/>
<path d="M404.3 137.2C410 164.7 408.4 193.7 410.3 222.8C411.1 235.5 412.3 248.1 414 260.7C419.3 299.5 429.4 341.1 412.3 376.3C399.7 402.2 373.7 419.8 345.8 427.2C325.6 432.6 304.8 432.8 284.1 431C252 428.2 218.3 420.1 189.3 404.2C171.5 394.5 155.5 381.8 142.7 365.8C125.9 344.6 121.3 326 118.3 300.3C108.2 214 56.5001 115.7 151.8 56.2C221.7 12.5 337.9 21.7 386.2 93.3C395.8 107.3 401.2 122 404.3 137.2Z" fill="#E5B69E"/>
<path d="M265.254 254.497C273.108 252.931 277.329 240.903 274.682 227.634C272.036 214.364 263.523 204.876 255.67 206.443C247.816 208.009 243.595 220.036 246.242 233.306C248.889 246.576 257.401 256.063 265.254 254.497Z" fill="#1B1464"/>
<path d="M356.846 229.086C364.699 227.52 368.92 215.492 366.274 202.223C363.627 188.953 355.115 179.465 347.261 181.032C339.408 182.598 335.187 194.625 337.833 207.895C340.48 221.165 348.992 230.652 356.846 229.086Z" fill="#1B1464"/>
<path d="M229.58 188.94C233.92 185.55 241.06 181.98 248.5 180.51C255.98 179.04 262.75 179.86 267.52 183.76L274.48 175.24C266.15 168.44 255.52 167.92 246.38 169.72C237.2 171.53 228.48 175.85 222.82 180.27L229.58 188.94ZM267.52 183.76C269.87 185.68 273.34 185.33 275.26 182.98C277.18 180.63 276.83 177.16 274.48 175.24L267.52 183.76ZM222.82 180.26C220.42 182.13 220 185.58 221.87 187.98C223.74 190.38 227.19 190.8 229.59 188.93L222.82 180.26Z" fill="#1B1464"/>
<path d="M320.8 149.6C324.06 154.03 324.06 154.03 324.06 154.03C324.06 154.03 324.07 154.02 324.08 154.02C324.1 154 324.14 153.97 324.21 153.93C324.33 153.84 324.53 153.71 324.8 153.53C325.34 153.18 326.15 152.67 327.18 152.1C329.26 150.95 332.13 149.59 335.39 148.67C341.91 146.83 349.2 146.87 355.42 152.78L363 144.81C352.91 135.22 341.01 135.66 332.4 138.09C328.1 139.31 324.43 141.05 321.86 142.48C320.56 143.2 319.52 143.84 318.79 144.32C318.42 144.56 318.13 144.76 317.92 144.9C317.82 144.97 317.73 145.03 317.67 145.08C317.64 145.1 317.61 145.12 317.59 145.14C317.58 145.15 317.57 145.15 317.56 145.16L317.55 145.17C317.54 145.17 317.54 145.17 320.8 149.6ZM355.41 152.79C357.61 154.88 361.09 154.8 363.19 152.59C365.28 150.39 365.2 146.91 362.99 144.81L355.41 152.79ZM317.54 145.17C315.1 146.97 314.58 150.42 316.38 152.86C318.18 155.3 321.63 155.82 324.07 154.02L317.54 145.17Z" fill="#1B1464"/>
<path d="M269.86 339.74C288.89 353.61 314.08 358.43 336.88 352.52L334.12 341.87C314.52 346.96 292.71 342.78 276.34 330.85L269.86 339.74ZM336.88 352.52C339.82 351.76 341.59 348.76 340.82 345.82C340.06 342.88 337.06 341.11 334.12 341.88L336.88 352.52ZM276.34 330.86C273.89 329.07 270.44 329.61 268.66 332.07C266.88 334.53 267.41 337.97 269.87 339.75L276.34 330.86Z" fill="#1B1464"/>
<path d="M325.19 217.49C324.17 212.55 324.48 207.41 324.89 201.38L313.92 200.64C313.53 206.41 313.04 213.07 314.42 219.73L325.19 217.49ZM341.16 245.88C333.36 237.79 327.42 228.39 325.19 217.5L314.41 219.71C317.18 233.21 324.45 244.41 333.24 253.53L341.16 245.88ZM345.67 281.16C350.71 274.94 352.13 268.3 350.66 261.84C349.27 255.73 345.42 250.36 341.18 245.91L333.21 253.49C336.87 257.33 339.18 260.97 339.93 264.28C340.61 267.24 340.18 270.46 337.12 274.23L345.67 281.16ZM301.49 287.48C307.84 290.12 315.98 291.77 323.86 291.28C331.72 290.79 340.07 288.08 345.67 281.17L337.13 274.24C334.14 277.93 329.23 279.92 323.17 280.3C317.13 280.68 310.67 279.38 305.71 277.32L301.49 287.48ZM324.89 201.37C325.1 198.34 322.81 195.72 319.77 195.51C316.74 195.3 314.12 197.59 313.91 200.63L324.89 201.37ZM319.8 218.6L325.19 217.5V217.49L319.8 218.6ZM337.2 249.7L341.18 245.91C341.17 245.9 341.16 245.89 341.15 245.88L337.2 249.7ZM305.71 277.32C302.91 276.15 299.69 277.48 298.52 280.29C297.35 283.09 298.68 286.31 301.49 287.48L305.71 277.32Z" fill="#1B1464"/>
<path d="M344.9 349C344.9 349.2 344.8 349.4 344.8 349.6C344.2 353.5 342.2 357 339.7 360C331.2 370.2 317.1 374.9 304 373.3C290.9 371.7 278.8 364.3 270.1 354.3C265.7 349.2 262.1 343.3 261.1 336.7C260.7 334 260.9 330.9 263 329.2C263.8 328.5 264.8 328.1 265.8 327.8C277.8 323.9 290.6 328.9 302.8 332C310 333.8 317.4 335 324.8 335.8C334.6 336.9 346.7 334.8 344.9 349ZM410.4 222.8C409.1 226.2 408.3 229.7 407.6 233.2C404.7 248.6 406.1 264.7 401.3 279.8C397 293.3 385.7 305.5 375 314.4C372.6 316.4 370 318.4 367 319.5C355.9 323.6 345 317.4 334.1 317.2C326.7 317 319.3 318 311.9 317.6C296 316.7 280.7 309.1 264.7 309.8C249.3 310.5 237.1 320.7 222.7 325.2C213.2 328.2 202.6 326.5 193.8 321.8C186.2 317.8 178.1 311.4 174 303.7C169.3 294.8 168.3 283.3 164.8 273.8C162.7 268 151.3 243.8 148.6 261.5C146.9 272.4 146.4 283.1 142.4 293.6C140.1 299.7 137 305.5 135 311.7C121.3 354.7 154.9 385.5 189.2 404.3C218.2 420.1 251.9 428.3 284 431.1C304.6 432.9 325.5 432.6 345.7 427.3C373.5 419.9 399.6 402.2 412.2 376.4C429.3 341.2 419.2 299.6 413.9 260.8C412.4 248.1 411.2 235.5 410.4 222.8Z" fill="#1B1464"/>
<path d="M134.6 213C127.3 206.3 117.8 202.5 105.6 203.9C87.8003 205.8 72.4002 220.3 68.2002 237.7C61.4002 265.7 83.0003 296 108.1 306.7C130.4 316.2 153.8 305.9 156.6 280.9C157.9 269.8 155.3 258.7 152.8 247.9C149.8 234.8 144 221.5 134.6 213Z" fill="#E5B69E"/>
<path d="M128.9 256.5C128.9 251 128.9 251 128.9 251C128.9 251 128.9 251 128.89 251H128.88C128.87 251 128.86 251 128.85 251C128.82 251 128.79 251 128.75 251C128.67 251 128.56 251 128.43 251.01C128.16 251.02 127.78 251.03 127.32 251.05C126.39 251.1 125.09 251.2 123.56 251.39C120.53 251.78 116.39 252.56 112.32 254.21C108.28 255.84 103.87 258.5 100.89 262.91C97.7898 267.5 96.6998 273.3 98.2298 280.19L108.97 277.8C108 273.44 108.83 270.81 110 269.06C111.3 267.14 113.52 265.58 116.44 264.4C119.32 263.23 122.44 262.61 124.94 262.3C126.17 262.14 127.2 262.07 127.9 262.03C128.25 262.01 128.52 262 128.7 262C128.79 262 128.85 262 128.88 262C128.9 262 128.91 262 128.91 262C128.9 262 128.9 262 128.9 256.5ZM91.4998 240.3C93.0298 245.58 93.0298 245.58 93.0298 245.58C93.0298 245.58 93.0497 245.58 93.0697 245.57C93.1097 245.56 93.1698 245.54 93.2698 245.52C93.4598 245.47 93.7498 245.4 94.1398 245.31C94.9198 245.13 96.0597 244.9 97.4497 244.68C100.27 244.25 103.95 243.94 107.69 244.31C111.45 244.68 114.91 245.71 117.62 247.67C120.2 249.53 122.47 252.51 123.54 257.62L134.31 255.38C132.72 247.74 129 242.32 124.07 238.75C119.27 235.28 113.72 233.85 108.78 233.36C103.83 232.87 99.1598 233.29 95.7898 233.8C94.0898 234.06 92.6798 234.35 91.6798 234.58C91.1798 234.7 90.7798 234.8 90.4898 234.87C90.3498 234.91 90.2298 234.94 90.1498 234.96C90.1098 234.97 90.0698 234.98 90.0498 234.99C90.0398 234.99 90.0298 235 90.0198 235H90.0098C90.0098 235 90.0098 235 89.9998 235C89.9698 235.02 89.9698 235.02 91.4998 240.3ZM98.2298 280.19C98.8898 283.16 101.83 285.02 104.79 284.37C107.75 283.72 109.62 280.77 108.97 277.81L98.2298 280.19ZM128.9 256.5V262C130.56 262 132.12 261.25 133.17 259.97C134.21 258.69 134.63 257 134.29 255.38L128.9 256.5ZM89.9697 235.02C87.0497 235.87 85.3697 238.92 86.2197 241.83C87.0697 244.75 90.1198 246.43 93.0298 245.58L89.9697 235.02Z" fill="#DB9F7F"/>
<path d="M122 115.9C115.6 115.9 115.6 125.9 122 125.9C128.5 125.9 128.5 115.9 122 115.9Z" fill="#DB9F7F"/>
<path d="M130.5 98.3C124.1 98.3 124.1 108.3 130.5 108.3C136.9 108.3 136.9 98.3 130.5 98.3Z" fill="#DB9F7F"/>
<path d="M140.9 115.2C134.5 115.2 134.5 125.2 140.9 125.2C147.3 125.2 147.3 115.2 140.9 115.2Z" fill="#DB9F7F"/>
</svg>
