<svg width="500" height="500" viewBox="0 0 500 500" fill="none" xmlns="http://www.w3.org/2000/svg">
<path d="M500 0H0V500H500V0Z" fill="#444DF2"/>
<path d="M399.8 297.1C404.6 308.1 412.3 317.6 418.2 328C424.1 338.4 428.1 350.9 424.8 362.4C427.7 363.1 430 359.8 431.1 357C437.5 339.9 430.6 312 424.4 295.4C416.5 274.1 399.5 255.7 398.6 233C391 253.2 391 277.2 399.8 297.1Z" fill="#797EF3"/>
<path d="M387.2 73.7C400.8 90.2 411.4 110.4 411 131.8C410.8 139.3 409.3 146.6 407.8 153.9C404.7 168.9 401.6 183.8 398.5 198.8C397.7 202.5 397 206.2 395 209.4C390.4 216.9 379.9 219.3 371.7 216.3C363.5 213.3 357.4 205.8 354.2 197.7C349.2 185.3 349.8 171.1 353.5 158.3C357.2 145.4 363.8 133.6 370.6 122.1C375.7 113.5 381.1 104.8 389.1 98.8L387.2 73.7Z" fill="#797EF3"/>
<path d="M308.9 500H201.7C201.6 500 201.6 500 201.5 500C183.4 499.1 165.1 499.7 146.9 499.9C143.3 499.9 139.7 500 136 500C136.7 497.6 137.4 495.3 138 493C149.4 453.5 154.9 415.2 156.9 374.7C157.3 366.9 157.5 359 157.7 351.1C160.4 351.9 163.1 352.6 165.9 353.3C166.5 353.5 167 353.6 167.6 353.7C172.2 354.8 176.8 355.8 181.5 356.5C222.3 363.5 264.4 359.1 305.9 358.6C322.3 358.4 314.8 390.5 308.3 415.6C308.3 415.7 308.2 415.8 308.2 415.9C305.3 426.8 302.7 436.4 302.3 441.4C300.8 461.1 302.3 481.5 308.9 500Z" fill="#E8C5AA"/>
<path d="M345.5 87.9C336 81.1 324.6 76.8 312.5 72.6C258.7 53.9 192.3 59.5 150.4 101.3C134.4 117.2 122.9 137.4 116.8 159.2C110.2 182.7 113.6 203.5 115.1 227.2C117.4 264.8 123.3 304.6 147.7 333.3C189 381.9 254 412.4 317.3 416.5C337 417.8 358.9 415.2 375.9 404.6C386.1 398.2 394.5 388.4 398.5 376.9C401.2 369.1 400 360.2 401.4 352C404.1 335.8 409.7 320.3 411.7 304C413.8 286.8 413.4 269.4 411.9 252.2C411 241.6 410.7 230.7 407.9 220.4C405.1 210 399.8 200.7 396.6 190.3C390.2 169.4 384.2 146.5 374.3 127C367.3 113.3 358.1 96.8 345.5 87.9Z" fill="#F4D3B8"/>
<path d="M323.834 234.834C331.634 233.016 335.465 220.859 332.392 207.681C329.319 194.503 320.506 185.295 312.707 187.113C304.907 188.932 301.076 201.089 304.149 214.267C307.222 227.445 316.035 236.653 323.834 234.834Z" fill="#1B1464"/>
<path d="M382.11 209.38C388.24 207.95 391.27 198.46 388.88 188.19C386.49 177.92 379.57 170.75 373.44 172.18C367.31 173.61 364.28 183.1 366.68 193.37C369.07 203.64 375.98 210.81 382.11 209.38Z" fill="#1B1464"/>
<path d="M395.88 249.03C397.39 250.84 397.7 254.12 395.53 259.67C393.49 264.89 389.98 270.17 387.36 273.99L396.44 280.2C399.02 276.43 403.22 270.21 405.77 263.67C408.2 257.47 410 248.75 404.32 241.96L395.88 249.03ZM374.8 240.55C378.93 242.56 384.29 243.71 387.72 244.74C391.68 245.92 394.28 247.16 395.94 249.09L404.28 241.92C400.44 237.45 395.19 235.49 390.87 234.2C386.02 232.75 382.68 232.15 379.61 230.66L374.8 240.55ZM351.76 210.2C353.76 223.86 363.01 234.77 374.78 240.54L379.62 230.66C370.59 226.23 364.04 218.14 362.64 208.6L351.76 210.2ZM387.36 273.99C385.64 276.5 386.29 279.92 388.79 281.63C391.29 283.34 394.72 282.7 396.43 280.2L387.36 273.99ZM400.1 245.5L404.32 241.97C404.3 241.95 404.29 241.93 404.27 241.92L400.1 245.5ZM377.2 235.6L374.78 240.54C374.79 240.54 374.79 240.55 374.8 240.55L377.2 235.6ZM362.64 208.6C362.2 205.59 359.41 203.52 356.4 203.96C353.39 204.4 351.32 207.19 351.76 210.2L362.64 208.6Z" fill="#1B1464"/>
<path d="M330.4 324.49C346.66 323.31 366.36 321.75 380.65 309.71L373.56 301.3C362.45 310.66 346.55 312.3 329.61 313.52L330.4 324.49ZM304.01 323.77C313.03 325.77 322.24 325.08 330.4 324.49L329.61 313.52C321.17 314.13 313.58 314.63 306.4 313.04L304.01 323.77ZM376.3 330.22C353.78 339.52 325.46 332.91 309.31 314.75L301.09 322.06C320.34 343.7 353.62 351.49 380.5 340.39L376.3 330.22ZM380.64 309.71C382.96 307.75 383.26 304.28 381.3 301.96C379.34 299.64 375.87 299.34 373.55 301.3L380.64 309.71ZM305.2 318.4L306.39 313.03C304.06 312.51 301.66 313.56 300.45 315.61C299.24 317.67 299.5 320.27 301.08 322.05L305.2 318.4ZM380.5 340.38C383.31 339.22 384.64 336 383.48 333.2C382.32 330.39 379.1 329.06 376.3 330.22L380.5 340.38Z" fill="#1B1464"/>
<path d="M287.21 167C278.08 171.18 269.21 178.43 265.02 188.49L275.17 192.72C277.98 185.97 284.31 180.42 291.78 177.01L287.21 167ZM322.98 162.61C310.27 160.07 299.2 161.55 287.23 167L291.78 177.01C301.8 172.45 310.53 171.34 320.83 173.4L322.98 162.61ZM265.02 188.48C263.85 191.28 265.18 194.5 267.98 195.67C270.78 196.84 274 195.51 275.17 192.71L265.02 188.48ZM289.5 172L287.22 166.99C287.22 166.99 287.21 166.99 287.21 167L289.5 172ZM320.82 173.39C323.8 173.99 326.7 172.05 327.29 169.08C327.89 166.1 325.95 163.2 322.98 162.61L320.82 173.39Z" fill="#1B1464"/>
<path d="M360.9 152.6C362.5 157.86 362.5 157.86 362.49 157.86C362.49 157.86 362.49 157.86 362.5 157.86C362.51 157.86 362.54 157.85 362.57 157.84C362.64 157.82 362.77 157.78 362.94 157.74C363.28 157.65 363.79 157.53 364.45 157.39C365.77 157.11 367.63 156.8 369.73 156.66C374.11 156.36 378.7 156.87 382.03 159.02L388 149.78C381.72 145.73 374.26 145.33 369 145.69C366.28 145.87 363.9 146.27 362.21 146.63C361.36 146.81 360.67 146.98 360.17 147.1C359.92 147.16 359.73 147.22 359.58 147.26C359.51 147.28 359.45 147.3 359.41 147.31C359.39 147.32 359.37 147.32 359.35 147.33C359.34 147.33 359.34 147.33 359.33 147.34H359.32C359.3 147.34 359.3 147.34 360.9 152.6ZM382.02 159.02C384.57 160.67 387.98 159.94 389.62 157.38C391.26 154.82 390.54 151.42 387.98 149.78L382.02 159.02ZM359.3 147.34C356.39 148.22 354.75 151.29 355.63 154.2C356.51 157.11 359.58 158.75 362.49 157.87L359.3 147.34Z" fill="#1B1464"/>
<path d="M307.8 114.2C309.6 116.5 311.5 118.8 313.4 121C326.8 136.5 344.8 135.9 364 137.9C378.3 139.3 393.6 143.1 402.4 154.5C409.6 163.9 410.8 176.8 409 188.5C408.3 193.4 407.1 198.2 406.6 203.1C405 218.8 410.8 234.8 421 246.7C431.2 258.7 445.7 266.7 460.9 270.4C452.9 263.2 444.8 255.9 438.8 246.8C432 236.4 428.3 224.1 428.4 211.7C428.5 199 432.4 186.6 435 174.2C440.8 146.5 439 117.5 431.2 90.4001C424.7 68.0001 413.5 37.2001 392.6 24.3001C375.4 13.6001 356.7 8.20007 336.2 9.80007C318.8 11.2001 301.3 19.3001 291.4 33.8001C274.4 58.7001 291.4 93.1001 307.8 114.2Z" fill="#797EF3"/>
<path d="M302.5 69.4001C301 70.5001 299.5 71.5001 298 72.5001C296 73.8001 294 75.1001 292 76.3001C290.7 77.1001 289.4 77.9001 288.1 78.7001C268 91.5001 247.8 104.3 229.5 119.6C217.9 129.3 207.1 139.8 196.5 150.5C191.7 155.3 185.5 159.7 181.2 164.8C177 169.8 177.1 175.1 176.4 181.6C176.3 182.6 176.2 183.7 176 184.7C172.2 217.4 168.4 250.1 164.5 282.7C161.7 306.3 164.1 329.1 165.7 351.9C165.7 352.3 165.8 352.7 165.8 353.1C166.6 365.7 167.2 378.3 166.5 391.2C166.3 394.9 166 398.6 165.5 402.3C163.9 416.1 162.2 429.8 160.6 443.6C158.5 461.4 156.3 479.6 148.8 495.9C148.2 497.2 147.5 498.6 146.8 499.9H52C49.7 497.9 47.6 495.9 46.1 493.5C40.2 483.9 43.1 466.5 46.7 456.7C50.6 446.4 57.4 437.4 62.1 427.5C66.8 417.5 69.1 405.3 63.8 395.7C61.5 391.5 58 388.2 55.1 384.4C42.2 366.8 46.6 342.3 52.9 321.4C59.2 300.5 66.9 277.9 59.1 257.5C55.4 247.9 48.5 239.8 44.2 230.4C32.5 204.6 42.5 173.8 58.3 150.3C64.8 140.6 72.3 131.4 76.5 120.5C81.1 108.6 81.4 95.5001 83.3 82.9001C85.2 70.3001 89.4 57.1001 99.5 49.2001C107.8 42.7001 118.4 41.1001 128.1 37.6001C138 34.0001 146.1 27.9001 155 22.5001C175.7 10.0001 199.3 3.10007 223.5 2.70007C241.2 2.50007 258.9 5.50007 275.7 10.9001C286.3 14.3001 292.8 18.6001 299 24.9001C302.2 28.2001 305.4 32.1001 309 36.6001C311.7 40.0001 314.4 43.5001 315.2 47.7001C316.8 56.6001 310 63.9001 302.5 69.4001Z" fill="#797EF3"/>
<path d="M135.2 201.9C128.8 194.3 119.9 189.3 107.7 189C89.7999 188.6 72.5999 200.9 66.1999 217.6C55.7999 244.5 73.1999 277.4 96.6999 291.2C117.6 303.5 142.1 296.3 148.2 272C150.9 261.2 149.8 249.8 148.8 238.8C147.4 225.5 143.4 211.7 135.2 201.9Z" fill="#F4D3B8"/>
<path d="M124 244.4C124.73 238.95 124.72 238.95 124.72 238.95C124.72 238.95 124.72 238.95 124.71 238.95H124.7C124.69 238.95 124.68 238.95 124.67 238.95C124.64 238.95 124.61 238.94 124.57 238.94C124.49 238.93 124.38 238.92 124.25 238.9C123.98 238.87 123.61 238.83 123.14 238.8C122.21 238.73 120.91 238.65 119.37 238.64C116.32 238.62 112.12 238.86 107.87 239.96C103.66 241.05 98.9298 243.11 95.4098 247.09C91.7398 251.23 89.9098 256.85 90.5198 263.88L101.48 262.93C101.09 258.46 102.26 255.95 103.65 254.38C105.19 252.64 107.59 251.39 110.63 250.61C113.63 249.83 116.8 249.63 119.32 249.64C120.56 249.65 121.58 249.71 122.29 249.76C122.64 249.79 122.91 249.81 123.08 249.83C123.17 249.84 123.23 249.85 123.26 249.85C123.28 249.85 123.29 249.85 123.29 249.85C123.27 249.85 123.27 249.85 124 244.4ZM88.9998 223.4C89.8198 228.84 89.8198 228.84 89.8198 228.84C89.8198 228.84 89.8398 228.84 89.8598 228.83C89.8998 228.82 89.9698 228.82 90.0598 228.8C90.2498 228.78 90.5498 228.74 90.9498 228.7C91.7398 228.62 92.8998 228.54 94.3098 228.51C97.1498 228.45 100.85 228.63 104.5 229.49C108.17 230.35 111.48 231.83 113.92 234.13C116.24 236.33 118.12 239.59 118.53 244.8L129.5 243.96C128.9 236.18 125.91 230.31 121.48 226.13C117.17 222.06 111.85 219.91 107.03 218.77C102.18 217.63 97.4998 217.43 94.0998 217.5C92.3798 217.53 90.9498 217.64 89.9298 217.73C89.4198 217.78 89.0098 217.83 88.7198 217.86C88.5698 217.88 88.4598 217.89 88.3698 217.91C88.3298 217.92 88.2898 217.92 88.2598 217.92C88.2498 217.92 88.2298 217.92 88.2298 217.93H88.2198C88.2198 217.93 88.2198 217.93 88.2098 217.93C88.1798 217.96 88.1798 217.96 88.9998 223.4ZM90.5198 263.88C90.7798 266.91 93.4498 269.15 96.4798 268.88C99.5098 268.62 101.75 265.95 101.48 262.92L90.5198 263.88ZM124 244.4L123.27 249.85C124.91 250.07 126.57 249.53 127.78 248.39C128.99 247.25 129.61 245.63 129.48 243.97L124 244.4ZM88.1798 217.96C85.1798 218.42 83.1098 221.22 83.5698 224.22C84.0298 227.22 86.8298 229.29 89.8298 228.83L88.1798 217.96Z" fill="#EABC97"/>
<path d="M148.3 136.9C154.4 119.8 164.6 103.6 175 89C185.1 74.7 198.8 63 214.5 55.2C229.2 48 246.2 44.2 262 48.4C287.8 55.3 303.5 87.5 290.6 111.9C285.5 121.6 275.8 127.9 266.8 134C237.9 153.8 209.6 179.2 202.2 213.4C197.6 234.5 201.7 256.4 198.3 277.6C195.6 293.9 188 307.7 183.2 323C178.1 338.8 180.8 357.4 185.5 373C190.8 390.5 199.5 406.6 208 422.8C214.3 434.8 220.4 450 212.6 461.1C216.4 450.9 212.2 439.2 205.4 430.7C198.6 422.2 189.5 415.9 181.5 408.5C163 391.2 150.9 367.3 147.4 342.3C145.9 331.9 144.7 320.7 144 310.1C143.2 297.4 148.5 284.8 149.9 272.2C152.5 248.4 141.4 230.1 139.3 208C137.1 184.8 140.4 159.1 148.3 136.9Z" fill="#797EF3"/>
<path d="M303.5 416.5C303.5 411 303.5 411 303.5 411C303.49 411 303.48 411 303.45 411C303.4 411 303.32 411 303.2 411C302.97 410.99 302.61 410.98 302.12 410.96C301.15 410.92 299.69 410.83 297.78 410.64C293.97 410.28 288.4 409.54 281.52 408.06C267.75 405.1 248.75 399.15 228.03 387.23L222.55 396.77C244.42 409.35 264.53 415.66 279.21 418.82C286.55 420.4 292.55 421.2 296.74 421.6C298.84 421.8 300.49 421.9 301.63 421.95C302.2 421.98 302.65 421.99 302.96 422C303.12 422 303.24 422.01 303.33 422.01C303.37 422.01 303.41 422.01 303.44 422.01C303.45 422.01 303.47 422.01 303.47 422.01H303.48C303.5 422 303.5 422 303.5 416.5ZM228.04 387.23C225.41 385.72 222.04 386.62 220.53 389.26C219.02 391.9 219.92 395.26 222.56 396.77L228.04 387.23ZM303.5 422C306.54 422 309 419.54 309 416.5C309 413.46 306.54 411 303.5 411V422Z" fill="#1B1464"/>
</svg>
