<svg width="500" height="500" viewBox="0 0 500 500" fill="none" xmlns="http://www.w3.org/2000/svg">
<path d="M500 0H0V500H500V0Z" fill="#ADB0D9"/>
<path d="M306.91 500H84.3901C85.1801 497.65 85.9902 495.31 86.7802 492.97C102.66 445.92 108.85 400.37 109.76 351.05C166.1 365.39 225.27 359.24 283.4 358.64C305.03 358.42 297.76 375.35 298.04 391.1C298.38 410.79 299.4 430.47 301.1 450.09C302.54 466.78 304.48 483.43 306.91 500Z" fill="#ADB0D9"/>
<path d="M306.91 500H84.3901C85.1801 497.65 85.9902 495.31 86.7802 492.97C102.66 445.92 108.85 400.37 109.76 351.05C166.1 365.39 225.27 359.24 283.4 358.64C305.03 358.42 297.76 375.35 298.04 391.1C298.38 410.79 299.4 430.47 301.1 450.09C302.54 466.78 304.48 483.43 306.91 500Z" fill="#E8AE8E"/>
<path d="M149.1 391.32C149.46 391.75 149.83 392.18 150.19 392.6C154.83 398.06 159.5 403.55 164.96 408.2C193.43 432.42 237.74 435.2 272.81 442.04C294.11 446.19 315.43 446.9 336.42 440.47C360.62 433.05 382.33 416.69 394.49 394.49C409.63 366.83 409.02 333.57 408.02 302.05C407.45 284.16 406.88 266.28 406.31 248.39C405.95 237.17 405.6 225.94 406.17 214.73C407.57 187.1 414.79 158.76 408.83 131.22C403.88 108.36 384.76 84.4999 363.42 74.8099C329.74 59.5199 289.39 55.4899 252.95 59.6099C226.58 62.5899 199.75 65.7499 175.51 76.5199C153.73 86.1999 125.5 98.5499 113.87 120.16C99.1201 147.56 90.7302 179.24 87.1602 210.02C84.2102 235.46 84.7401 261.31 88.7701 286.61C92.5801 310.54 98.9501 332.31 114.77 350.92C126.2 364.39 137.65 377.85 149.1 391.32Z" fill="#F4C19F"/>
<path d="M307.33 313.55C304.35 313.55 301.9 311.17 301.83 308.18C301.76 305.14 304.16 302.62 307.2 302.55C320.91 302.23 326.38 298.26 335.69 289.7C325.05 265.93 318.79 240.71 317.06 214.67C316.86 211.64 319.15 209.02 322.18 208.82C325.19 208.63 327.83 210.91 328.03 213.94C329.73 239.58 336.4 265.43 347.32 288.69C348.34 290.85 347.84 293.42 346.09 295.05C333.35 306.91 325.85 313.12 307.45 313.54C307.42 313.55 307.38 313.55 307.33 313.55Z" fill="#1B1464"/>
<path d="M263.185 260.424C271.204 259.897 276.987 248.538 276.102 235.052C275.216 221.566 267.998 211.06 259.979 211.586C251.961 212.113 246.178 223.472 247.063 236.958C247.948 250.444 255.166 260.95 263.185 260.424Z" fill="#1B1464"/>
<path d="M374.291 257.302C382.31 256.776 388.093 245.417 387.208 231.931C386.322 218.445 379.104 207.939 371.085 208.465C363.067 208.992 357.284 220.351 358.169 233.837C359.054 247.323 366.272 257.829 374.291 257.302Z" fill="#1B1464"/>
<path d="M399.3 211.85C397.74 211.85 396.18 211.19 395.1 209.9C375.72 186.98 352.94 187.43 352.72 187.42C349.65 187.53 347.15 185.13 347.05 182.09C346.95 179.05 349.34 176.52 352.38 176.42C353.52 176.39 380.73 175.85 403.51 202.79C405.47 205.11 405.18 208.58 402.86 210.54C401.81 211.42 400.55 211.85 399.3 211.85Z" fill="#1B1464"/>
<path d="M210.84 220.91C210.46 220.91 210.08 220.87 209.69 220.79C206.72 220.17 204.82 217.21 205.44 214.24C205.68 213.08 212.05 185.55 268.27 169.9C271.2 169.09 274.23 170.8 275.04 173.72C275.85 176.65 274.14 179.68 271.22 180.49C222.24 194.13 216.25 216.35 216.19 216.57C215.64 219.17 213.38 220.91 210.84 220.91Z" fill="#1B1464"/>
<path d="M308.47 370.13C304.12 370.13 299.6 369.49 295.06 368.19C284.49 365.16 275.03 359.13 266.69 353.81C264.13 352.18 263.38 348.77 265.01 346.22C266.64 343.66 270.04 342.91 272.6 344.54C280.68 349.7 289.04 355.04 298.07 357.62C307.44 360.3 316.42 359.42 322.71 355.21C325.23 353.52 328.65 354.2 330.34 356.72C332.03 359.24 331.35 362.66 328.83 364.35C323.13 368.17 316.07 370.13 308.47 370.13Z" fill="#1B1464"/>
<path d="M108.86 302.14C105.05 285.32 109.26 266.3 110.09 249.16C110.2 246.99 110.39 244.6 111.83 243.07C114.75 239.96 119.52 242.74 123.46 244.04C130.76 246.44 138.95 242.58 143.78 236.27C149.48 228.83 151.13 218.77 151.38 209.16C151.52 203.72 151.08 199.08 148.95 194.21C147.66 191.28 144.83 182.94 141.69 181.85C154.56 186.29 170.18 185.55 179.75 175.37C182.61 172.33 184.77 168.62 186.61 164.79C191.5 154.59 196.31 136.48 187.08 127.54C195.99 136.51 208.72 142.99 221.18 139.91C233.89 136.76 243.54 120.49 237.42 108.21C243.77 121.62 251.71 136.44 265.39 140.03C280.61 144.03 297.3 128.55 295.68 111.93C302.38 128.77 312.65 145.59 328.73 151.99C344.8 158.39 366.83 148.77 368.48 130.56C368.04 135.34 366.16 140.45 366.4 145.2C367.3 162.9 383.25 176.52 396.62 184.38C409.42 191.9 424.45 200.23 439.81 197.66C454.34 195.24 461.54 183 463.68 168.33C465.08 158.72 464.46 147.85 458.16 140.81C451.08 151.95 437.92 158.32 425.39 156.69C432.6 152.44 437.97 143.79 436.76 135.11C435.32 124.68 425.23 120.59 416.87 122.59C425.19 111.93 436.13 104 435.51 88.1801C434.82 70.6301 420.68 52.7401 406.81 44.8601C399.58 40.7501 391.11 38.3701 383.13 40.3401C375.15 42.3101 367.98 49.4301 367.35 58.1401C365.26 41.0401 354.35 26.1501 340.73 16.8601C327.11 7.57007 310.99 3.27007 294.95 1.03007C284.69 -0.409933 273.78 -0.959933 264.48 3.87007C255.18 8.70007 248.35 20.5501 251.89 30.9101C239.92 12.1801 218.39 2.19007 197.17 0.780067C175.95 -0.629933 154.91 5.57007 135.07 13.7301C127.52 16.8401 119.66 20.5901 115.12 27.7301C105.31 43.1701 116.06 63.7201 127.27 78.0201C120.59 63.3401 102.6 59.9601 87.3 59.6301C71.35 59.2901 52.23 62.3601 45.55 77.8001C38.3 94.5401 50.82 112.96 62.49 126.55C45.24 118.84 22.88 133.76 21.85 153.67C20.82 173.58 41.4999 191.04 59.4499 185.39C55.0999 179.5 45.4101 181.8 41.5601 188.08C37.7101 194.35 38.25 202.57 39.85 209.87C42.44 221.74 47.47 233 54.47 242.64C59.86 250.06 71.76 256.01 76.16 247.88C63.44 249.12 51.91 259.31 48.41 272.41C44.91 285.5 49.68 300.65 59.88 308.84C64.41 312.48 70.26 314.83 75.77 313.41C81.28 311.99 85.84 305.85 84.4499 299.99C78.9199 297.52 72.33 302.22 70.49 308.3C68.65 314.38 70.4 321.05 72.97 326.82C77.6 337.23 84.96 346.23 93.99 352.55C96.04 353.98 98.38 355.33 100.8 354.96C104.49 354.4 106.61 350.25 107.85 346.51C112.79 331.65 112.23 317.16 108.86 302.14Z" fill="#444DF2"/>
<path d="M116.08 201.95C109.69 194.4 100.76 189.37 88.5701 189.09C70.6601 188.68 53.5102 201.02 47.0302 217.73C36.6002 244.64 54.0402 277.48 77.5502 291.36C98.4302 303.68 122.94 296.5 129.03 272.13C131.73 261.32 130.67 249.98 129.58 238.89C128.28 225.53 124.28 211.65 116.08 201.95Z" fill="#F4C19F"/>
<path d="M76.8299 268.87C74.0099 268.87 71.6099 266.71 71.3599 263.85C70.5499 254.53 74.1999 248.93 77.3999 245.87C83.2299 240.3 91.7399 238.85 97.9099 238.62C96.9799 236.51 95.62 234.75 93.81 233.31C85.59 226.77 70.8099 228.79 70.6599 228.81C67.6599 229.28 64.8499 227.2 64.3999 224.2C63.9399 221.2 66.0099 218.39 69.0099 217.94C69.7999 217.82 88.5799 215.11 100.65 224.7C106.43 229.3 109.69 235.78 110.32 243.95C110.45 245.6 109.82 247.23 108.62 248.37C107.41 249.51 105.76 250.04 104.11 249.83C100.45 249.36 89.8599 249.16 84.9799 253.84C82.8399 255.9 81.9698 258.86 82.3198 262.9C82.5798 265.93 80.3398 268.59 77.3198 268.86C77.1498 268.86 76.9899 268.87 76.8299 268.87Z" fill="#EAAA7F"/>
<path d="M294.44 447.82C292.89 447.82 267.07 447.68 233.98 439.11C202.98 431.08 159.64 413.78 129.26 377C127.33 374.66 127.66 371.19 130 369.26C132.34 367.33 135.81 367.66 137.74 370C166.18 404.43 207.12 420.75 236.45 428.39C268.52 436.74 294.14 436.82 294.46 436.82C297.5 436.82 299.96 439.28 299.96 442.31C299.96 445.35 297.51 447.81 294.47 447.82C294.47 447.82 294.46 447.82 294.44 447.82Z" fill="#1B1464"/>
</svg>
