<svg width="500" height="500" viewBox="0 0 500 500" fill="none" xmlns="http://www.w3.org/2000/svg">
<path d="M500 0H0V500H500V0Z" fill="#797EF3"/>
<path d="M309.91 500H126.29C130.74 483.69 134.35 469.24 135.02 466.21C140.87 439.4 144.57 412.2 146.05 384.91C146.82 370.76 147 356.58 146.58 342.42C146.29 332.61 141.82 316.93 146.27 307.58C154.79 289.65 194.4 310.7 211.99 312.99C242.2 316.93 272.92 315.08 303.23 313.24C298.62 375.49 300.88 438.15 309.91 500Z" fill="#797EF3"/>
<path d="M437.65 279.89C440.48 292.7 445.92 305.12 446.02 318.25C443.3 318.91 440.77 316.74 438.9 314.66C419.13 292.63 412.85 261.88 408.7 232.57C406.14 214.47 399.57 184.41 408.15 167.27C412.52 158.54 428.34 148.39 437.38 156.79C448.07 166.74 439.45 201.82 438.03 214.59C435.62 236.25 432.88 258.33 437.65 279.89Z" fill="#444DF2"/>
<path d="M281.72 33.44C273.29 28.65 264.54 24.42 255.47 20.86C216.74 5.68 171.25 4.14 134.57 23.79C102.3 41.08 79.6999 73.07 67.5299 107.6C55.3599 142.13 52.6798 179.26 52.4898 215.86C52.2498 260.36 55.5399 304.83 61.0199 348.98C64.5199 377.22 73.2598 449.82 111.05 451.32C157.44 453.15 204 450.85 249.99 444.49C289.16 439.08 353.7 468.9 385 442C403.69 425.93 396.87 368.18 404.89 344.87C414.64 316.55 421.91 287.1 422.78 257.16C423.93 217.69 413.66 177.94 393.53 143.97C382.82 125.9 369.45 109.52 355.19 94.1C333.56 70.72 309.29 49.1 281.72 33.44Z" fill="#444DF2"/>
<path d="M309.91 500H126.29C130.74 483.69 134.35 469.24 135.02 466.21C140.87 439.4 144.57 412.2 146.05 384.91C146.82 370.76 147 356.58 146.58 342.42C146.29 332.61 141.82 316.93 146.27 307.58C154.79 289.65 194.4 310.7 211.99 312.99C242.2 316.93 272.92 315.08 303.23 313.24C298.62 375.49 300.88 438.15 309.91 500Z" fill="#E8AE8E"/>
<path d="M148.73 374.19C179.29 407.01 221.37 427.82 266.54 439.48C309.54 450.58 360.17 451.89 393.09 422.08C420.75 397.04 428.29 356.96 431.13 319.75C434.53 275.17 433.45 230.37 431.5 185.71C430.65 166.29 429.62 146.74 424.96 127.88C417.91 99.3601 400.3 61.4601 372.42 48.8001C338.74 33.5101 298.39 29.4801 261.95 33.6001C235.58 36.5801 208.75 39.7401 184.51 50.5101C162.73 60.1901 134.5 72.5401 122.87 94.1501C108.12 121.55 99.7299 153.23 96.1599 184.01C90.7399 230.69 97.0699 278.87 115.22 322.27C123.53 342.2 134.96 359.41 148.73 374.19Z" fill="#F4C19F"/>
<path d="M123.08 191.95C116.69 184.4 107.76 179.37 95.5701 179.09C77.6601 178.68 60.5102 191.02 54.0302 207.73C43.6002 234.64 61.0401 267.48 84.5501 281.36C105.43 293.68 129.94 286.5 136.03 262.13C138.73 251.32 137.67 239.98 136.58 228.89C135.28 215.53 131.28 201.65 123.08 191.95Z" fill="#F4C19F"/>
<path d="M83.8299 258.87C81.0099 258.87 78.6099 256.71 78.3599 253.85C77.5499 244.53 81.1999 238.93 84.3999 235.87C90.2299 230.3 98.7399 228.85 104.91 228.62C103.98 226.51 102.62 224.75 100.81 223.31C92.5899 216.77 77.8099 218.79 77.6599 218.81C74.6599 219.27 71.8499 217.2 71.3999 214.2C70.9399 211.2 73.0099 208.39 76.0099 207.94C76.7999 207.82 95.5799 205.11 107.65 214.7C113.43 219.3 116.69 225.78 117.32 233.95C117.45 235.6 116.82 237.23 115.62 238.37C114.41 239.51 112.76 240.04 111.11 239.83C107.45 239.36 96.8599 239.16 91.9799 243.84C89.8399 245.9 88.9699 248.86 89.3199 252.9C89.5799 255.93 87.3399 258.59 84.3199 258.86C84.1499 258.86 83.9899 258.87 83.8299 258.87Z" fill="#EAAA7F"/>
<path d="M213.44 166.66C213.41 166.7 213.39 166.74 213.36 166.78C210.06 171.61 198.39 171.13 193.35 171.77C189.16 172.3 129.74 177.56 129.46 174.77C131.73 197.92 134 221.08 136.27 244.23C139.15 273.65 141.6 305.25 126.92 330.91C132.29 291.78 125.25 251.04 107.06 215.98C101.27 204.81 94.2801 193.95 91.8201 181.61C89.7101 170.99 91.1201 159.99 93.3601 149.4C98.9601 123.02 109.77 97.7601 124.99 75.5001C152.94 34.6401 203.66 13.7801 251.81 10.3601C273.21 8.84012 294.73 9.06012 316.09 11.0201C346.69 13.8301 381.54 23.7901 401.74 48.4801C413.63 63.0201 421.24 80.5001 428.7 97.7401C430.4 101.67 454.06 174.06 448.07 172.75C435.89 170.1 423.72 167.45 411.54 164.8C398.47 161.96 385.39 159.11 372.13 157.36C345.04 153.79 317.65 154.89 290.51 157.27C283.4 157.89 239.07 168.02 235.53 157.81C229.67 140.91 223.8 124.01 217.94 107.11C216.98 104.35 212.95 101.41 212.02 104.18C212.04 115.79 219.1 157.91 213.44 166.66Z" fill="#444DF2"/>
<path d="M316.33 313.55C313.3 313.55 310.84 311.1 310.83 308.07C310.82 305.03 313.27 302.56 316.3 302.55C316.66 302.55 351.8 302.11 353.8 282.63C354.59 274.89 352.27 272.2 348.06 267.33C341.14 259.33 331.67 248.37 332.3 212.89C332.35 209.89 334.8 207.49 337.8 207.49C337.83 207.49 337.87 207.49 337.9 207.49C340.94 207.54 343.36 210.05 343.3 213.09C342.74 244.37 350.3 253.11 356.38 260.14C361.12 265.62 366.02 271.3 364.74 283.76C361.73 313.04 318.2 313.55 316.35 313.56C316.35 313.55 316.34 313.55 316.33 313.55Z" fill="#1B1464"/>
<path d="M272.161 260.426C280.179 259.9 285.962 248.54 285.077 235.054C284.192 221.568 276.974 211.062 268.955 211.589C260.936 212.115 255.153 223.474 256.038 236.96C256.924 250.446 264.142 260.952 272.161 260.426Z" fill="#1B1464"/>
<path d="M383.267 257.305C391.285 256.779 397.068 245.419 396.183 231.933C395.298 218.447 388.08 207.942 380.061 208.468C372.042 208.994 366.259 220.353 367.144 233.84C368.029 247.326 375.248 257.831 383.267 257.305Z" fill="#1B1464"/>
<path d="M410.64 206.01C409.51 206.01 408.38 205.67 407.4 204.95C383.39 187.4 361.8 192.86 360.89 193.1C357.96 193.88 354.95 192.15 354.16 189.22C353.37 186.3 355.08 183.29 357.99 182.48C359.1 182.18 385.41 175.25 413.89 196.06C416.34 197.85 416.88 201.29 415.09 203.75C414.01 205.23 412.34 206.01 410.64 206.01Z" fill="#1B1464"/>
<path d="M215.42 211.98C214.56 211.98 213.68 211.78 212.86 211.34C210.17 209.92 209.14 206.6 210.56 203.91C211.11 202.87 224.58 178.58 281.65 178.58C282.15 178.58 282.65 178.58 283.16 178.59C286.2 178.61 288.64 181.09 288.62 184.13C288.6 187.15 286.14 189.59 283.12 189.59C283.11 189.59 283.09 189.59 283.08 189.59C232.2 189.22 220.39 208.84 220.29 209.04C219.31 210.91 217.4 211.98 215.42 211.98Z" fill="#1B1464"/>
<path d="M307.18 360.21C263.65 360.21 234.69 324.96 233.39 323.36C231.48 321 231.85 317.53 234.22 315.63C236.58 313.72 240.04 314.09 241.95 316.46C242.4 317.01 272.95 353.9 315.67 348.7C318.69 348.34 321.43 350.48 321.79 353.5C322.16 356.51 320.01 359.26 316.99 359.62C313.65 360.02 310.37 360.21 307.18 360.21Z" fill="#1B1464"/>
<path d="M300.81 451C236.7 451 171.24 401.97 168.49 399.88C166.07 398.05 165.59 394.6 167.43 392.18C169.26 389.76 172.71 389.28 175.14 391.11C175.79 391.6 240.44 439.99 300.82 439.99C303.86 439.99 306.32 442.45 306.32 445.49C306.32 448.53 303.85 451 300.81 451Z" fill="#1B1464"/>
</svg>
