<svg width="500" height="500" viewBox="0 0 500 500" fill="none" xmlns="http://www.w3.org/2000/svg">
<path d="M500 0H0V500H500V0Z" fill="#ADB0D9"/>
<path d="M373.9 135.8C375.8 128.8 380.9 122.1 379.6 115C378.6 109.5 376.3 103.8 377 98.1001C377.5 93.9001 383.8 81.3001 389.3 82.8001C391.5 83.4001 392.6 85.9001 393.3 88.0001C397.3 99.5001 400.5 109.3 401.8 121.6C403.1 134 403.4 146.5 402.9 159C402.6 166.7 401.9 174.5 398.8 181.5C396.1 187.7 391.5 193.1 385.9 196.8C384.3 193.3 380.9 191.1 378.4 188.2C374.4 183.7 372.5 177.8 371.4 171.9C371.4 159.4 370.6 148.2 373.9 135.8Z" fill="#444DF2"/>
<path d="M362.3 250C360.3 241.8 361.1 233.2 361.9 224.8C362.9 214.7 365.9 204.2 372.1 196.8C376.9 191.1 383.7 187.3 392.9 187.1C399 187 407.8 188.5 411.3 194C414.9 199.8 415.8 209.5 415.3 216C414.6 224.8 411 232.9 407.5 240.8C403.7 249.5 398.7 268.2 387.1 269C375 269.9 365.1 261.3 362.3 250Z" fill="#F5B18F"/>
<path d="M297.9 500H75.3999C76.1999 496.6 76.9999 493.2 77.7999 489.8C93.6999 421.6 99.8999 355.5 100.8 284C157.1 304.8 216.3 295.9 274.4 295C296 294.7 288.8 319.2 289 342.1C289.3 370.7 290.4 399.2 292.1 427.6C293.5 451.8 295.5 476 297.9 500Z" fill="#F5B18F"/>
<path d="M395.9 162C393.6 190.6 390.1 219.2 388.2 247.9C387.4 260.6 386.9 273.2 386.9 285.9C387 325.1 391.7 367.6 370.1 400.3C354.2 424.3 326.1 438.4 297.5 442.1C276.8 444.8 256.1 442.3 235.9 437.8C204.4 430.9 172.1 418.3 145.4 398.8C129 386.8 114.8 372.2 104.3 354.6C94.1997 337.8 88.1997 318.9 85.0997 299.4C83.4997 289.1 82.6997 278.6 82.5997 268.1C82.3997 248.6 84.3997 229.1 87.1997 209.8C91.1997 182.2 95.0997 153 110.8 129.2C125.5 107 147.3 89.7 171.6 79C212.2 61.2 258.1 60 302.4 62.7C318.1 63.7 333.9 65.1 348.8 70.1C363.7 75.1 377.7 84 386.2 97.1C398.3 115.8 397.7 139.8 395.9 162Z" fill="#FEC29B"/>
<path d="M241.272 260.463C249.264 259.939 255.023 248.568 254.137 235.065C253.251 221.563 246.054 211.042 238.063 211.566C230.071 212.091 224.312 223.462 225.198 236.965C226.084 250.467 233.281 260.988 241.272 260.463Z" fill="#1B1464"/>
<path d="M335.387 247.362C343.378 246.838 349.138 235.466 348.251 221.964C347.365 208.461 340.168 197.941 332.177 198.465C324.186 198.99 318.426 210.361 319.312 223.863C320.199 237.366 327.395 247.887 335.387 247.362Z" fill="#1B1464"/>
<path d="M214.42 190.72C219.14 187.91 226.67 185.28 234.23 184.8C241.83 184.32 248.4 186.04 252.57 190.54L260.64 183.06C253.32 175.16 242.83 173.23 233.53 173.82C224.19 174.41 214.97 177.59 208.79 181.27L214.42 190.72ZM252.57 190.54C254.64 192.77 258.12 192.9 260.34 190.83C262.57 188.76 262.7 185.28 260.63 183.06L252.57 190.54ZM208.78 181.28C206.17 182.84 205.32 186.21 206.87 188.82C208.43 191.43 211.8 192.28 214.41 190.73L208.78 181.28Z" fill="#1B1464"/>
<path d="M333.2 178.8C335.87 183.61 335.86 183.61 335.86 183.61C335.86 183.61 335.87 183.61 335.88 183.6C335.9 183.59 335.95 183.56 336.02 183.53C336.15 183.46 336.37 183.35 336.66 183.21C337.24 182.93 338.11 182.54 339.2 182.11C341.41 181.24 344.43 180.27 347.78 179.78C354.48 178.8 361.72 179.78 367.14 186.47L375.68 179.54C366.9 168.72 355.04 167.61 346.19 168.9C341.77 169.55 337.9 170.8 335.17 171.88C333.79 172.42 332.67 172.93 331.89 173.31C331.49 173.5 331.18 173.66 330.96 173.78C330.85 173.84 330.76 173.89 330.69 173.92C330.66 173.94 330.63 173.95 330.61 173.97C330.6 173.98 330.59 173.98 330.58 173.99C330.58 173.99 330.57 173.99 330.57 174C330.54 173.99 330.53 173.99 333.2 178.8ZM367.13 186.47C369.04 188.83 372.51 189.19 374.87 187.28C377.23 185.37 377.59 181.9 375.68 179.54L367.13 186.47ZM330.53 173.99C327.87 175.46 326.91 178.81 328.39 181.47C329.86 184.13 333.21 185.09 335.87 183.61L330.53 173.99Z" fill="#1B1464"/>
<path d="M234.6 345.48C251.6 361.73 276.04 369.76 299.35 366.96L298.04 356.04C277.95 358.45 256.79 351.48 242.19 337.52L234.6 345.48ZM299.35 366.96C302.37 366.6 304.52 363.86 304.16 360.84C303.8 357.82 301.06 355.67 298.04 356.03L299.35 366.96ZM242.2 337.52C240 335.42 236.52 335.5 234.42 337.7C232.32 339.9 232.4 343.38 234.6 345.48L242.2 337.52Z" fill="#1B1464"/>
<path d="M394.9 104.7C386.6 129.6 348.1 133.9 326.1 136.3C292.6 140 262.8 132.5 230.6 125C226.4 124 172.1 110.7 172.1 110.7C169.3 138.5 163 163.1 146.1 185.4C138.8 195 145.2 207 144.1 219.6C142.8 235.7 142.3 255.3 137.3 270.7C136.7 272.7 134.8 274.4 132.7 274.1C129.8 273.7 128.9 270.2 127.8 267.5C125.3 261.2 118.2 255.5 111.2 258.5C104.6 261.4 101.3 271.7 97.9 277.4C94.7 282.8 89.7 287.4 87.9 293.4C87.3 295.4 87.1 297.5 86.2 299.4C85.3 301.3 83.5 303 81.4 303C79.9 303 78.5 302 77.4 301C66.5 291.6 64.7 279.2 61 266.4C56.8 251.4 55.0999 235.9 53.5999 220.5C52.6999 210.5 51.8999 200.4 50.5999 190.4C49.4999 181.7 47.1 173.1 47 164.3C46.6 135.9 52.5 107.1 66.4 82.5C84.6 50.5 121.7 33.6 155 24.8C209.8 10.4 264.5 18.3 317.8 35.3C339.3 42.2 405.1 74.4 394.9 104.7Z" fill="#444DF2"/>
<path d="M314.7 256.53C310.3 252.53 307.18 250.26 304.85 247.19C302.95 244.67 301.89 241.9 302.63 237.39L291.77 235.61C290.51 243.3 292.5 249.08 296.07 253.81C299.22 257.98 303.99 261.66 307.3 264.67L314.7 256.53ZM324.2 278.17C324.45 269.92 320.68 261.9 314.68 256.51L307.33 264.69C311.13 268.1 313.35 273.08 313.21 277.83L324.2 278.17ZM271.85 297.66C280.71 302.79 292.91 305.68 303.42 303.59C308.78 302.53 313.95 300.11 317.85 295.74C321.79 291.33 323.99 285.41 324.19 278.15L313.19 277.84C313.04 282.98 311.55 286.27 309.63 288.42C307.68 290.61 304.86 292.09 301.26 292.8C293.87 294.27 284.37 292.21 277.33 288.13L271.85 297.66ZM302.63 237.39C303.12 234.39 301.09 231.56 298.09 231.07C295.09 230.58 292.26 232.61 291.77 235.61L302.63 237.39ZM311 260.6L307.3 264.67C307.31 264.68 307.32 264.69 307.33 264.69L311 260.6ZM318.7 278L313.2 277.83V277.84L318.7 278ZM277.35 288.14C274.72 286.62 271.36 287.52 269.83 290.15C268.31 292.78 269.21 296.14 271.84 297.67L277.35 288.14Z" fill="#1B1464"/>
<path d="M116.1 201.9C109.7 194.3 100.8 189.3 88.5998 189C70.6998 188.6 53.4998 200.9 47.0998 217.6C36.6998 244.5 54.0998 277.4 77.5998 291.2C98.4998 303.5 123 296.3 129.1 272C131.8 261.2 130.7 249.8 129.7 238.8C128.3 225.5 124.3 211.7 116.1 201.9Z" fill="#FEC29B"/>
<path d="M104.8 244.4C105.53 238.95 105.52 238.95 105.52 238.95C105.52 238.95 105.52 238.95 105.51 238.95H105.5C105.49 238.95 105.48 238.95 105.47 238.95C105.44 238.95 105.41 238.94 105.37 238.94C105.29 238.93 105.18 238.92 105.05 238.9C104.78 238.87 104.41 238.83 103.94 238.8C103.01 238.73 101.71 238.65 100.17 238.64C97.1201 238.62 92.9201 238.86 88.6701 239.96C84.4601 241.05 79.7302 243.11 76.2102 247.09C72.5402 251.23 70.7101 256.85 71.3201 263.88L82.2802 262.93C81.8902 258.46 83.0602 255.95 84.4502 254.38C85.9902 252.64 88.3901 251.39 91.4301 250.61C94.4301 249.83 97.6001 249.63 100.12 249.64C101.36 249.65 102.38 249.71 103.09 249.76C103.44 249.79 103.71 249.81 103.88 249.83C103.97 249.84 104.03 249.85 104.06 249.85C104.08 249.85 104.09 249.85 104.09 249.85C104.07 249.85 104.07 249.85 104.8 244.4ZM69.8001 223.4C70.6201 228.84 70.6201 228.84 70.6201 228.84C70.6201 228.84 70.6401 228.84 70.6601 228.83C70.7001 228.82 70.7701 228.82 70.8601 228.8C71.0501 228.78 71.3501 228.74 71.7501 228.7C72.5401 228.62 73.7001 228.54 75.1101 228.51C77.9501 228.45 81.6501 228.63 85.3001 229.49C88.9701 230.35 92.2801 231.83 94.7201 234.13C97.0401 236.33 98.9202 239.59 99.3302 244.8L110.3 243.96C109.7 236.18 106.71 230.31 102.28 226.13C97.9702 222.06 92.6502 219.91 87.8302 218.77C82.9802 217.63 78.3002 217.43 74.9002 217.5C73.1802 217.53 71.7501 217.64 70.7301 217.73C70.2201 217.78 69.8102 217.83 69.5202 217.86C69.3702 217.88 69.2601 217.89 69.1701 217.91C69.1301 217.92 69.0901 217.92 69.0601 217.92C69.0501 217.92 69.0302 217.92 69.0302 217.93H69.0202C69.0202 217.93 69.0202 217.93 69.0102 217.93C68.9802 217.96 68.9801 217.96 69.8001 223.4ZM71.3201 263.88C71.5801 266.91 74.2502 269.15 77.2802 268.88C80.3102 268.62 82.5502 265.95 82.2802 262.92L71.3201 263.88ZM104.8 244.4L104.07 249.85C105.71 250.07 107.37 249.53 108.58 248.39C109.79 247.25 110.41 245.63 110.28 243.97L104.8 244.4ZM68.9801 217.96C65.9801 218.42 63.9101 221.22 64.3701 224.22C64.8301 227.22 67.6301 229.29 70.6301 228.83L68.9801 217.96Z" fill="#F4AC7D"/>
<path d="M286.25 436.01C244.83 437.86 195.71 425.13 161.45 402.23L155.34 411.37C191.68 435.67 243.16 448.94 286.74 446.99L286.25 436.01ZM161.46 402.23C158.93 400.54 155.52 401.22 153.83 403.75C152.14 406.28 152.82 409.69 155.35 411.38L161.46 402.23ZM286.75 446.99C289.78 446.85 292.13 444.28 292 441.25C291.87 438.22 289.29 435.87 286.26 436L286.75 446.99Z" fill="#1B1464"/>
</svg>
